<svg xmlns="http://www.w3.org/2000/svg" version="1.1" xmlns:xlink="http://www.w3.org/1999/xlink" xmlns:svgjs="http://svgjs.com/svgjs" width="1440" height="560" preserveAspectRatio="none" viewBox="0 0 1440 560">
    <g mask="url(&quot;#SvgjsMask1049&quot;)" fill="none">
        <rect width="1440" height="560" x="0" y="0" fill="rgba(114, 18, 152, 1)"></rect>
        <path d="M0,550.77C104.619,563.483,211.476,523.662,296.654,461.602C379.343,401.355,440.011,311.502,464.675,212.21C487.327,121.017,439.34,31.761,426.548,-61.328C413.653,-155.169,434.085,-253.822,389.175,-337.222C338.733,-430.896,263.966,-521.369,162.168,-552.294C60.152,-583.285,-46.072,-534.923,-146.829,-500.055C-243.285,-466.676,-349.466,-437.336,-409.193,-354.568C-467.5,-273.768,-437.604,-163.234,-459.956,-66.132C-485.046,42.866,-594.164,148.389,-548.469,250.477C-502.851,352.392,-351.615,341.103,-253.675,394.726C-164.797,443.388,-100.588,538.546,0,550.77" fill="#5b0e7a"></path>
        <path d="M1440 1041.151C1560.968 1039.9569999999999 1677.0140000000001 1147.952 1789.893 1104.444 1904.1019999999999 1060.424 1967.5 935.202 2011.356 820.9300000000001 2053.603 710.852 2054.058 590.684 2031.483 474.95799999999997 2009.699 363.286 1952.3110000000001 266.109 1885.201 174.231 1812.789 75.09500000000003 1748.368-57.274 1627.407-78.25 1505.635-99.36599999999999 1411.365 25.91700000000003 1296.766 72.19099999999997 1196.7 112.59699999999998 1066.82 93.85399999999998 997.13 176.25099999999998 927.502 258.574 969.908 383.97900000000004 944.448 488.75 915.289 608.739 809.64 714.981 836.948 835.405 864.9 958.671 966.0160000000001 1070.58 1085.641 1111.393 1201.964 1151.08 1317.099 1042.364 1440 1041.151" fill="#8916b6"></path>
    </g>
    <defs>
        <mask id="SvgjsMask1049">
            <rect width="1440" height="560" fill="#ffffff"></rect>
        </mask>
    </defs>
</svg>