<svg xmlns="http://www.w3.org/2000/svg" viewBox="441.425 246 16.0013 8" width="16" height="16" fill="context-fill" fill-opacity="context-fill-opacity">
  <path d="M 456.8 249 L 449.283 249 C 448.836 247.279 447.283 246 445.425 246 C 443.219 246 441.425 247.794 441.425 250 C 441.425 252.206 443.219 254 445.425 254 C 447.545 254 449.268 252.338 449.4 250.25 L 454.3 250.25 L 454.3 252.5 C 454.3 252.981 454.821 253.282 455.238 253.041 C 455.431 252.93 455.55 252.723 455.55 252.5 L 455.55 250.25 L 456.8 250.25 C 457.281 250.25 457.582 249.729 457.342 249.313 C 457.23 249.119 457.024 249 456.8 249 Z M 445.425 252.75 C 443.908 252.75 442.675 251.517 442.675 250 C 442.675 248.483 443.908 247.25 445.425 247.25 C 446.942 247.25 448.175 248.483 448.175 250 C 448.175 251.517 446.942 252.75 445.425 252.75 Z" transform="matrix(1, 0, 0, 1, 0, -2.842170943040401e-14)"/>
  <text fill="white" style="font-family: Arial, sans-serif; font-size: 4px; font-weight: 700;" x="444.082" y="251.342" transform="matrix(1, 0, 0, 1, 0, -2.842170943040401e-14)">B</text>
</svg>