<svg viewBox="0 0 24 24" xmlns="http://www.w3.org/2000/svg" id="Programming-Language-Code--Streamline-Ultimate.svg" height="20" width="20"><desc>Programming Language Code Streamline Icon: https://streamlinehq.com</desc><path d="M14.25 23.25a3 3 0 0 0 3 -3V3.75a3 3 0 0 1 6 0v3h-6" fill="none" stroke="#ffffff" stroke-linecap="round" stroke-linejoin="round" stroke-width="1.5"></path><path d="M6.75 17.25V3.75a3 3 0 0 1 3 -3h10.5" fill="none" stroke="#ffffff" stroke-linecap="round" stroke-linejoin="round" stroke-width="1.5"></path><path d="M3.75 17.25a3 3 0 0 0 0 6h10.5a3 3 0 0 1 0 -6Z" fill="none" stroke="#ffffff" stroke-linecap="round" stroke-linejoin="round" stroke-width="1.5"></path><path d="m9.75 5.25 4.5 0" fill="none" stroke="#ffffff" stroke-linecap="round" stroke-linejoin="round" stroke-width="1.5"></path><path d="m9.75 8.25 4.5 0" fill="none" stroke="#ffffff" stroke-linecap="round" stroke-linejoin="round" stroke-width="1.5"></path><path d="m9.75 11.25 4.5 0" fill="none" stroke="#ffffff" stroke-linecap="round" stroke-linejoin="round" stroke-width="1.5"></path></svg>