<!-- <a href="https://iconscout.com/icons/password" class="text-underline font-size-sm" target="_blank">Password</a> by <a href="https://iconscout.com/contributors/circlontech" class="text-underline font-size-sm">Circlon Tech</a> on <a href="https://iconscout.com" class="text-underline font-size-sm">IconScout</a> -->
<svg xmlns="http://www.w3.org/2000/svg" fill-rule="evenodd" clip-rule="evenodd" image-rendering="optimizeQuality" shape-rendering="geometricPrecision" text-rendering="geometricPrecision" viewBox="0 0 6.827 6.827" id="Password"><path d="M1.10159 5.09609c-0.0936378,0 -0.169823,0.0761693 -0.169823,0.169787l0 0.907142c0,0.0936181 0.076185,0.169906 0.169823,0.169906l4.62346 0c0.0936417,0 0.169831,-0.0762874 0.169831,-0.169906l3.93701e-006 -0.907142c0,-0.093622 -0.0761929,-0.169783 -0.169835,-0.169783l-4.62346 -3.93701e-006zm4.62346 1.38744l-4.62346 0c-0.171173,0 -0.310433,-0.139264 -0.310433,-0.310516l0 -0.907142c0,-0.17113 0.13926,-0.310394 0.310433,-0.310394l4.62346 -3.93701e-006c0.171173,0 0.310441,0.139268 0.310441,0.310398l3.93701e-006 0.907142c0,0.171244 -0.139272,0.310516 -0.310445,0.310516z" fill="#ffffff" class="color000000 svgShape"></path><path d="M1.88346 6.15923c-0.0388307,0 -0.070311,-0.0314882 -0.070311,-0.0702992l3.93701e-006 -0.738827c0,-0.038815 0.0314764,-0.0703031 0.0703031,-0.0703031 0.0388268,-7.87402e-006 0.0703031,0.0314882 0.0703031,0.0703031l3.93701e-006 0.738819c0,0.0388189 -0.0314803,0.070311 -0.0703031,0.0703071z" fill="#ffffff" class="color000000 svgShape"></path><path d="M2.2033 5.97443c-0.0119252,0 -0.0240118,-0.00292913 -0.0350945,-0.00939764l-0.639823 -0.369354c-0.033622,-0.0194016 -0.0451496,-0.0624882 -0.0257362,-0.0960512 0.0194173,-0.033689 0.0623898,-0.0451693 0.0960433,-0.0257598l0.639823 0.369469c0.033626,0.0194094 0.0451457,0.062378 0.0257402,0.0959449 -0.0130236,0.0225787 -0.0366535,0.0351535 -0.0609528,0.0351496z" fill="#ffffff" class="color000000 svgShape"></path><path d="M1.5636 5.97443c-.0242992 0-.0479331-.0125709-.0609567-.0351496-.0194134-.0335709-.00788583-.0765315.0257362-.0959409l.639823-.369472c.0336024-.0194094.0766181-.00792913.0960354.0257598.0194173.0335591.00789764.0766496-.0257283.0960551l-.639823.36935c-.0110669.00646457-.0231654.00940157-.0350866.00939764zM2.90337 6.15923c-.0388268 0-.0703071-.0314882-.0703071-.0702992l0-.738827c0-.038815.0314803-.0703031.0703071-.0703031.0388268-.00000787402.0703031.0314882.0703031.0703031l0 .738819c0 .0388189-.0314764.070311-.0703031.0703071z" fill="#ffffff" class="color000000 svgShape"></path><path d="M3.22321 5.97443c-0.0119252,0 -0.0240079,-0.00292913 -0.0350787,-0.00939764l-0.639819 -0.369354c-0.0336299,-0.0194016 -0.0451654,-0.0624882 -0.025748,-0.0960512 0.0194213,-0.033689 0.0623976,-0.0451693 0.0960394,-0.0257598l0.639819 0.369469c0.0336299,0.0194094 0.0451614,0.062378 0.0257441,0.0959449 -0.0130236,0.0225787 -0.0366535,0.0351535 -0.0609567,0.0351496z" fill="#ffffff" class="color000000 svgShape"></path><path d="M2.58351 5.97443c-.0242913 0-.0479252-.0125709-.0609488-.0351496-.0194173-.0335709-.0078937-.0765315.0257323-.0959409l.639835-.369472c.0336024-.0194094.0766142-.00792913.0960354.0257598.0194213.0335591.00788583.0766496-.0257441.0960551l-.639819.36935c-.0110709.00646457-.0231693.00940157-.0350906.00939764zM3.92329 6.15923c-.0388386 0-.0703031-.0314882-.0703031-.0702992l0-.738827c0-.038815.0314646-.0703031.0703031-.0703031.0388268-.00000787402.0702953.0314882.0702953.0703031l0 .738819c0 .0388189-.0314685.070311-.0702953.0703071z" fill="#ffffff" class="color000000 svgShape"></path><path d="M4.24313 5.97443c-0.0119252,0 -0.0240236,-0.00292913 -0.0350945,-0.00939764l-0.639819 -0.369354c-0.0336299,-0.0194016 -0.0451496,-0.0624882 -0.0257323,-0.0960512 0.0194094,-0.033689 0.0623976,-0.0451693 0.0960354,-0.0257598l0.639823 0.369469c0.033626,0.0194094 0.0451496,0.062378 0.0257283,0.0959449 -0.0130236,0.0225787 -0.0366535,0.0351535 -0.0609409,0.0351496z" fill="#ffffff" class="color000000 svgShape"></path><path d="M3.60343 5.97443c-.0242992 0-.0479331-.0125709-.0609567-.0351496-.0194173-.0335709-.00788583-.0765315.0257441-.0959409l.639819-.369472c.0336181-.0194094.0766181-.00792913.0960354.0257598.0194252.0335591.00789764.0766496-.0257283.0960551l-.639831.36935c-.0110591.00646457-.0231575.00940157-.0350827.00939764zM4.9432 6.15923c-.0388228 0-.0703031-.0314882-.0703031-.0702992l0-.738827c0-.038815.0314764-.0703031.0703031-.0703031.0388268-.00000787402.0703071.0314882.0703071.0703031l0 .738819c0 .0388189-.0314803.070311-.0703071.0703071z" fill="#ffffff" class="color000000 svgShape"></path><path d="M5.26304 5.97443c-0.0119213,0 -0.0240118,-0.00292913 -0.0350787,-0.00939764l-0.639831 -0.369354c-0.0336299,-0.0194016 -0.0451535,-0.0624882 -0.0257323,-0.0960512 0.0194094,-0.033689 0.0623976,-0.0451693 0.0960354,-0.0257598l0.639819 0.369469c0.0336299,0.0194094 0.0451654,0.062378 0.0257441,0.0959449 -0.0130236,0.0225787 -0.0366575,0.0351535 -0.0609567,0.0351496z" fill="#ffffff" class="color000000 svgShape"></path><path d="M4.62334 5.97443c-.0242835 0-.0479173-.0125709-.0609409-.0351496-.0194173-.0335709-.00789764-.0765315.0257323-.0959409l.639819-.369472c.0336142-.0194094.0766299-.00792913.0960354.0257598.0194213.0335591.00789764.0766496-.0257323.0960551l-.639819.36935c-.0110669.00646457-.0231575.00940157-.0350945.00939764zM2.39299 2.07502c-.121252 0-.219917.098626-.219917.219953l0 2.04057c0 .121327.0986654.219957.219913.219957l2.04066 0c.121264 0 .219925-.098622.219925-.219949l0-2.04058c0-.121331-.0986614-.219949-.219925-.219949l-2.04065-.00000393701zm2.04065 2.62109l-2.04065 0c-.198795 0-.360528-.161728-.360528-.360559l0-2.04058c0-.198831.161732-.360559.360524-.360559l2.04066-.00000393701c.198811 0 .360535.161732.360535.360563l0 2.04057c0 .198835-.161724.360571-.360535.360567z" fill="#ffffff" class="color000000 svgShape"></path><path d="M4.20856 4.18077c-.0388268 0-.0703071-.0314843-.0703071-.0702992l0-1.59043c0-.038811.0314764-.0703031.0703071-.0703031.0388268 0 .0703031.0314921.0703031.0703031l0 1.59043c0 .038811-.0314764.070311-.0703031.0703031zM2.61809 4.18077c-.0388268 0-.0703071-.0314843-.0703071-.0702992l0-1.59043c0-.038811.0314803-.0703031.0703071-.0703031.0388268 0 .0703031.0314921.0703031.0703031l0 1.59043c0 .038811-.0314764.070311-.0703031.0703031zM4.19259 2.07502c-.0388307 0-.070311-.0314882-.070311-.0702992l.00000393701-.811945c0-.188335-.0740276-.366173-.208453-.500555-.134425-.134394-.312169-.20848-.500504-.20848-.188323-.00000393701-.366079.0740906-.500504.20848-.134421.134382-.208449.312224-.208449.500563l0 .811933c0 .038811-.0314803.0703071-.0703071.0703071-.0388268-.00000393701-.0703071-.0314921-.0703071-.0703031l0-.811945c0-.225925.0886535-.439039.249638-.600035.160984-.160874.374047-.24961.599929-.24961.225894-.00000393701.438945.0887362.599929.24961.160984.160996.249634.37411.249634.600043l.00000393701.811933c0 .038811-.0314803.0703071-.0703031.0703031zM3.41333 3.01841c-.0924488 0-.167646.075311-.167646.167709 0 .0923976.0751969.167587.167646.167587.092437-.00000393701.167634-.075185.167634-.167587 0-.0924055-.0752008-.167709-.167634-.167709zm0 .475906c-.169976 0-.308248-.138291-.308248-.308197 0-.170028.138272-.308319.308248-.308319.169969 0 .308248.138291.308248.308319 0 .169902-.13828.308201-.308248.308197z" fill="#ffffff" class="color000000 svgShape"></path><path d="M3.41333 3.75272c-.0388268 0-.0703031-.0314921-.0703031-.070311l0-.258398c0-.038815.0314764-.0703031.0703031-.0703031.0388307-.00000393701.0702953.0314882.0702953.0703071l0 .25839c0 .0388189-.0314685.070315-.0702953.070315zM4.72387 4.18077l-2.62109 0c-.0388268 0-.0703031-.0314843-.0703031-.0702992 0-.038815.0314764-.0703031.0703031-.0703031l2.62109-.00000787402c.0388268 0 .0703031.0315.0703031.070311 0 .0388071-.0314764.0703071-.0703031.0702992zM4.72387 2.59035l-2.62109 0c-.0388268 0-.0703031-.0314882-.0703031-.0703071 0-.038811.0314764-.0703031.0703031-.0703031l2.62109 0c.0388268 0 .0703031.0314921.0703031.0703031 0 .038815-.0314764.0703071-.0703031.0703071z" fill="#ffffff" class="color000000 svgShape"></path><rect width="6.827" height="6.827" fill="none"></rect></svg>